<svg width="170" height="170" viewBox="0 0 170 170" fill="none" xmlns="http://www.w3.org/2000/svg">
<circle cx="85" cy="85" r="85" fill="#E9E9E9"/>
<path d="M39.1656 28.3344C39.1656 23.7312 48.4938 20 60 20C71.5062 20 80.8344 23.7312 80.8344 28.3344V32.5C80.8344 37.1031 71.5062 40.8344 60 40.8344C48.4938 40.8344 39.1656 37.1031 39.1656 32.5V28.3344Z" fill="black"/>
<path d="M39.1656 39.7937V49.1687C39.1656 53.7656 48.4938 57.5 60 57.5C71.5062 57.5 80.8344 53.7687 80.8344 49.1656V39.7937C79.4271 40.8075 77.8959 41.6372 76.2781 42.2625C71.9062 44.0125 66.1469 45 60 45C53.8562 45 48.0969 44.0094 43.725 42.2625C42.1072 41.6372 40.576 40.8076 39.1688 39.7937H39.1656Z" fill="black"/>
<path d="M80.8344 56.4625C79.4269 57.4752 77.8957 58.3038 76.2781 58.9281C71.9031 60.6781 66.1469 61.6656 59.9969 61.6656C53.8531 61.6656 48.0938 60.6781 43.7219 58.9281C42.1041 58.3028 40.5729 57.4731 39.1656 56.4594V61.6656C39.1656 66.2687 48.4938 70 60 70C71.5062 70 80.8344 66.2687 80.8344 61.6656V56.4625Z" fill="black"/>
<g clip-path="url(#clip0_1_13)">
<path d="M81.5938 130.438C81.1545 130.438 80.7332 130.612 80.4226 130.923C80.112 131.233 79.9375 131.654 79.9375 132.094V135.406C79.9375 135.846 80.112 136.267 80.4226 136.577C80.7332 136.888 81.1545 137.062 81.5938 137.062H111.406C111.846 137.062 112.267 136.888 112.577 136.577C112.888 136.267 113.062 135.846 113.062 135.406V132.094C113.062 131.654 112.888 131.233 112.577 130.923C112.267 130.612 111.846 130.438 111.406 130.438H81.5938Z" fill="black"/>
<path d="M77.8672 97.3125C76.838 97.3086 75.8181 97.5074 74.8657 97.8977C73.9133 98.2879 73.0471 98.8619 72.3166 99.5869C71.586 100.312 71.0055 101.174 70.608 102.123C70.2105 103.072 70.0039 104.091 70 105.12V135.88C70.0039 136.909 70.2105 137.928 70.608 138.877C71.0055 139.826 71.586 140.688 72.3166 141.413C73.0471 142.138 73.9133 142.712 74.8657 143.102C75.8181 143.493 76.838 143.691 77.8672 143.687H115.133C116.162 143.691 117.182 143.493 118.134 143.102C119.087 142.712 119.953 142.138 120.683 141.413C121.414 140.688 121.995 139.826 122.392 138.877C122.79 137.928 122.996 136.909 123 135.88V105.12C122.996 104.091 122.79 103.072 122.392 102.123C121.995 101.174 121.414 100.312 120.683 99.5869C119.953 98.8619 119.087 98.2879 118.134 97.8977C117.182 97.5074 116.162 97.3086 115.133 97.3125H77.8672ZM73.3125 105.12C73.3125 102.652 75.3364 100.625 77.8672 100.625H115.133C117.664 100.625 119.688 102.652 119.688 105.12V107.25H73.3125V105.12ZM73.3125 110.562H119.688V135.88C119.688 138.348 117.664 140.375 115.133 140.375H77.8672C77.273 140.379 76.6838 140.266 76.1333 140.042C75.5828 139.818 75.0818 139.488 74.6589 139.071C74.2359 138.653 73.8993 138.157 73.6683 137.609C73.4373 137.062 73.3164 136.474 73.3125 135.88V110.562Z" fill="black"/>
</g>
<path d="M87 38.7217C124.66 16.4552 167.392 62.8363 141 114.722" stroke="black" stroke-width="2"/>
<path d="M32.4715 59C6.56086 105.305 15.9714 150.5 56.4714 138" stroke="black" stroke-width="2"/>
<defs>
<clipPath id="clip0_1_13">
<rect width="53" height="53" fill="white" transform="translate(70 94)"/>
</clipPath>
</defs>
</svg>
